<svg width="68" height="58" viewBox="0 0 68 58" fill="none" xmlns="http://www.w3.org/2000/svg">
<path d="M27.8134 32.25H21.7534V23.586H27.8134V24.618H22.9054V27.414H27.0694V28.422H22.9054V31.218H27.8134V32.25ZM30.8531 32.25H29.7011V23.586H31.0691L33.5771 27.234C33.6971 27.418 33.8691 27.674 34.0931 28.002C34.3171 28.322 34.5451 28.646 34.7771 28.974C35.0091 29.302 35.2211 29.606 35.4131 29.886C35.6051 30.158 35.7291 30.342 35.7851 30.438H35.8091C35.8011 30.166 35.7931 29.866 35.7851 29.538C35.7851 29.21 35.7851 28.882 35.7851 28.554C35.7851 28.218 35.7851 27.894 35.7851 27.582C35.7851 27.262 35.7851 26.982 35.7851 26.742V23.586H36.9371V32.25H35.7491L32.9291 28.266C32.8411 28.138 32.6971 27.926 32.4971 27.63C32.2971 27.326 32.0851 27.01 31.8611 26.682C31.6451 26.354 31.4411 26.042 31.2491 25.746C31.0571 25.45 30.9291 25.238 30.8651 25.11H30.8411C30.8491 25.334 30.8531 25.622 30.8531 25.974C30.8531 26.326 30.8531 26.69 30.8531 27.066C30.8531 27.442 30.8531 27.806 30.8531 28.158C30.8531 28.502 30.8531 28.778 30.8531 28.986V32.25Z" fill="white"/>
<g clip-path="url(#clip0_1_1818)">
<mask id="mask0_1_1818" style="mask-type:alpha" maskUnits="userSpaceOnUse" x="37" y="20" width="11" height="18">
<path d="M47.4526 20H37.9526V37.5H47.4526V20Z" fill="white"/>
</mask>
<g mask="url(#mask0_1_1818)">
<path fill-rule="evenodd" clip-rule="evenodd" d="M37.9526 20V37.5H47.4526V20H37.9526Z" fill="#2E42A5"/>
<path d="M36.895 36.2497L38.9855 38.4211L47.5003 22.3609L48.6029 19.134L46.3675 18.4082L42.8945 25.3291L40.0991 29.9921L36.895 36.2497Z" fill="white"/>
<path d="M37.1809 37.771L38.2459 39.0311L48.2067 18.834H46.7113L37.1809 37.771Z" fill="#F50100"/>
<path d="M48.5101 36.2497L46.4197 38.4211L37.9049 22.3609L36.8022 19.134L39.0377 18.4082L42.5107 25.3291L45.3061 29.9921L48.5101 36.2497Z" fill="white"/>
<path d="M48.439 37.3416L47.374 38.6018L43.1326 29.9544L41.8751 28.9882L36.6963 19.145H38.1917L43.3676 28.7545L44.7424 29.9131L48.439 37.3416Z" fill="#F50100"/>
<mask id="mask1_1_1818" style="mask-type:alpha" maskUnits="userSpaceOnUse" x="37" y="18" width="12" height="21">
<path fill-rule="evenodd" clip-rule="evenodd" d="M43.8245 18.5415H41.5815V25.8332H37.3674V31.6665H41.5815V38.9582H43.8245V31.6665H48.0549V25.8332H43.8245V18.5415Z" fill="white"/>
</mask>
<g mask="url(#mask1_1_1818)">
<path fill-rule="evenodd" clip-rule="evenodd" d="M43.8245 18.5415H41.5815V25.8332H37.3674V31.6665H41.5815V38.9582H43.8245V31.6665H48.0549V25.8332H43.8245V18.5415Z" fill="#F50100"/>
<path d="M41.5815 18.5413V17.083H40.9877V18.5413H41.5815ZM43.8245 18.5413H44.4183V17.083H43.8245V18.5413ZM41.5815 25.833V27.2913H42.1753V25.833H41.5815ZM37.3674 25.833V24.3747H36.7737V25.833H37.3674ZM37.3674 31.6663H36.7737V33.1247H37.3674V31.6663ZM41.5815 31.6663H42.1753V30.208H41.5815V31.6663ZM41.5815 38.958H40.9877V40.4163H41.5815V38.958ZM43.8245 38.958V40.4163H44.4183V38.958H43.8245ZM43.8245 31.6663V30.208H43.2308V31.6663H43.8245ZM48.0549 31.6663V33.1247H48.6487V31.6663H48.0549ZM48.0549 25.833H48.6487V24.3747H48.0549V25.833ZM43.8245 25.833H43.2308V27.2913H43.8245V25.833ZM41.5815 19.9997H43.8245V17.083H41.5815V19.9997ZM42.1753 25.833V18.5413H40.9877V25.833H42.1753ZM37.3674 27.2913H41.5815V24.3747H37.3674V27.2913ZM37.9612 31.6663V25.833H36.7737V31.6663H37.9612ZM41.5815 30.208H37.3674V33.1247H41.5815V30.208ZM42.1753 38.958V31.6663H40.9877V38.958H42.1753ZM43.8245 37.4997H41.5815V40.4163H43.8245V37.4997ZM43.2308 31.6663V38.958H44.4183V31.6663H43.2308ZM48.0549 30.208H43.8245V33.1247H48.0549V30.208ZM47.4612 25.833V31.6663H48.6487V25.833H47.4612ZM43.8245 27.2913H48.0549V24.3747H43.8245V27.2913ZM43.2308 18.5413V25.833H44.4183V18.5413H43.2308Z" fill="white"/>
</g>
</g>
</g>
<defs>
<clipPath id="clip0_1_1818">
<rect width="9.5" height="17.5" fill="white" transform="translate(37.9526 20)"/>
</clipPath>
</defs>
</svg>
